<?xml version="1.0" standalone="no"?>
<!DOCTYPE svg PUBLIC "-//W3C//DTD SVG 20010904//EN"
 "http://www.w3.org/TR/2001/REC-SVG-20010904/DTD/svg10.dtd">
<svg version="1.0" xmlns="http://www.w3.org/2000/svg"
 width="700.000000pt" height="700.000000pt" viewBox="0 0 700.000000 700.000000"
 preserveAspectRatio="xMidYMid meet">

<g transform="translate(0.000000,700.000000) scale(0.100000,-0.100000)"
fill="#000000" stroke="none">
<path d="M3115 6660 c-11 -5 -45 -9 -75 -9 -63 -1 -230 -16 -370 -33 -91 -11
-220 -51 -313 -99 -21 -10 -50 -19 -65 -19 -28 0 -115 -41 -227 -106 -33 -20
-82 -45 -110 -57 -27 -11 -72 -36 -99 -54 -26 -18 -54 -33 -61 -33 -6 0 -20
-9 -30 -20 -10 -11 -23 -20 -29 -20 -6 0 -38 -20 -71 -45 -33 -25 -62 -45 -66
-45 -3 0 -28 -20 -55 -45 -27 -24 -52 -45 -56 -45 -24 -1 -308 -256 -308 -277
0 -7 -12 -18 -28 -24 -15 -5 -32 -17 -38 -25 -7 -8 -37 -42 -68 -75 -31 -32
-56 -65 -56 -73 0 -7 -56 -73 -125 -146 -69 -73 -133 -146 -142 -164 -9 -17
-29 -47 -44 -66 -16 -19 -29 -41 -29 -48 0 -8 -9 -31 -19 -51 -11 -20 -34 -70
-51 -111 -47 -115 -83 -193 -95 -210 -7 -8 -17 -34 -23 -56 -7 -23 -19 -47
-27 -54 -8 -7 -15 -20 -15 -29 0 -9 -7 -29 -15 -45 -9 -16 -20 -46 -25 -65 -5
-20 -15 -56 -23 -81 -21 -64 -63 -314 -77 -450 -6 -63 -24 -182 -40 -265 -25
-129 -29 -172 -28 -305 0 -85 -3 -191 -6 -235 -13 -140 28 -612 64 -740 25
-92 60 -262 69 -341 6 -51 18 -108 26 -128 8 -19 15 -44 15 -54 0 -21 39 -146
63 -202 8 -19 30 -96 48 -170 44 -180 73 -224 245 -381 73 -67 123 -89 226
-104 67 -9 161 19 193 57 30 35 31 69 5 123 -11 22 -19 44 -20 49 0 6 -11 27
-25 48 -60 91 -73 114 -80 138 -11 39 -56 151 -76 190 -32 61 -78 173 -90 220
-6 25 -24 70 -40 100 -24 46 -30 73 -35 150 -3 52 -10 104 -14 115 -14 30 -38
124 -45 175 -4 25 -16 74 -27 110 -11 38 -25 126 -31 210 -15 177 -13 755 3
825 5 28 17 88 25 135 8 47 31 132 50 190 19 57 35 111 35 119 0 9 12 39 25
66 14 28 25 59 25 71 0 11 4 24 8 30 5 5 19 47 32 94 12 47 29 92 37 101 7 8
13 23 13 33 0 10 13 43 30 74 16 31 47 98 70 147 22 50 47 101 55 115 8 14 22
40 31 59 9 19 27 49 40 66 13 18 24 42 24 53 0 12 9 27 20 34 11 7 20 18 20
25 0 6 7 18 15 26 16 16 65 94 90 142 8 17 27 49 43 71 15 23 39 60 54 82 15
22 36 43 47 47 11 3 23 15 26 26 4 10 22 31 41 45 19 15 34 32 34 39 0 19 141
161 167 169 12 4 25 15 28 25 3 9 20 25 38 35 17 9 50 27 72 40 22 13 67 38
100 55 33 18 71 43 85 56 14 12 39 30 55 39 41 23 85 56 116 88 15 15 45 32
67 38 23 6 44 15 47 20 13 21 155 72 265 95 41 9 91 22 110 30 19 8 71 17 115
20 44 4 123 15 175 25 72 13 147 18 312 19 204 0 221 -1 300 -25 45 -14 101
-27 123 -30 22 -3 61 -10 87 -15 28 -7 54 -7 65 -2 21 11 24 10 78 -4 22 -6
63 -14 90 -18 135 -18 475 -136 475 -165 0 -5 21 -16 48 -26 66 -25 139 -68
304 -178 75 -51 104 -74 196 -154 30 -26 61 -51 70 -56 9 -5 40 -32 68 -60 28
-28 71 -63 97 -78 30 -18 74 -62 128 -130 45 -57 92 -113 105 -125 13 -12 24
-27 24 -32 0 -6 24 -39 53 -73 29 -35 56 -70 60 -78 4 -8 25 -44 47 -80 22
-36 45 -76 52 -90 7 -14 17 -28 21 -31 13 -9 52 -75 81 -134 13 -28 31 -57 40
-64 9 -7 16 -18 16 -23 0 -5 14 -30 32 -56 43 -63 71 -117 108 -209 17 -42 36
-83 42 -90 17 -21 76 -161 94 -223 9 -30 21 -61 26 -67 6 -7 14 -70 19 -140 5
-71 15 -155 24 -188 18 -76 31 -162 45 -296 10 -87 9 -134 -4 -255 -9 -82 -19
-174 -22 -204 -3 -30 -12 -77 -20 -104 -8 -27 -14 -67 -14 -89 0 -45 -24 -139
-45 -179 -8 -14 -15 -37 -15 -50 0 -46 -53 -155 -110 -224 -14 -17 -36 -46
-50 -64 -14 -18 -32 -40 -40 -49 -8 -9 -35 -45 -58 -81 -53 -79 -107 -148
-190 -243 -35 -40 -72 -88 -82 -108 -11 -20 -26 -39 -35 -42 -8 -4 -15 -12
-15 -19 0 -24 -135 -154 -194 -188 -32 -18 -73 -45 -90 -60 -17 -15 -42 -31
-56 -35 -14 -4 -42 -23 -62 -41 -20 -18 -52 -40 -70 -50 -18 -9 -54 -32 -80
-50 -26 -18 -69 -41 -97 -50 -27 -9 -57 -24 -67 -35 -9 -10 -25 -19 -34 -19
-9 0 -20 -4 -26 -10 -12 -12 -130 -50 -158 -50 -11 0 -40 -7 -63 -15 -40 -14
-90 -24 -303 -60 -52 -9 -117 -23 -145 -31 -27 -8 -124 -20 -215 -26 -175 -12
-284 -2 -420 38 -30 9 -75 20 -100 24 -45 8 -133 40 -146 53 -4 4 -17 7 -29 7
-12 0 -48 9 -80 20 -32 11 -68 20 -79 20 -25 0 -184 78 -208 102 -10 10 -24
18 -31 18 -7 0 -20 9 -29 19 -9 11 -36 25 -60 32 -24 7 -53 22 -64 33 -12 12
-43 37 -69 56 -26 19 -68 55 -93 78 -26 24 -59 51 -74 60 -16 9 -28 20 -28 25
0 4 -22 32 -48 60 -27 29 -57 66 -67 83 -9 17 -29 36 -44 42 -14 6 -46 27 -71
47 -25 19 -55 40 -67 47 -13 6 -25 18 -28 27 -3 9 -19 25 -35 34 -17 10 -37
33 -46 50 -9 18 -22 39 -29 47 -18 21 -75 132 -75 146 0 7 -9 23 -20 36 -37
43 -120 216 -146 305 -30 98 -32 111 -38 203 -2 36 -14 119 -26 185 -18 100
-21 138 -15 230 4 61 9 160 10 222 2 61 8 120 14 131 15 29 48 205 61 332 7
63 18 125 26 137 8 12 14 29 14 38 0 8 13 55 29 103 16 48 31 104 34 125 3 20
14 50 25 65 10 15 25 43 32 62 23 58 66 111 225 274 55 57 109 108 120 114 11
5 39 27 62 48 23 21 89 63 146 93 57 31 117 66 133 79 70 56 178 119 284 167
25 11 56 28 70 37 14 9 39 20 55 24 17 4 46 15 65 25 88 45 133 59 212 64 46
4 99 8 118 10 40 5 265 -19 385 -41 58 -10 92 -23 123 -45 23 -17 77 -46 120
-66 98 -45 204 -115 240 -158 15 -19 50 -46 77 -61 28 -14 79 -45 115 -69 36
-24 91 -56 124 -71 62 -29 113 -75 152 -136 13 -20 31 -39 41 -42 17 -6 32
-27 76 -106 10 -19 27 -44 37 -55 10 -11 24 -31 29 -45 6 -14 29 -50 51 -80
22 -30 40 -58 40 -62 0 -4 17 -34 37 -65 20 -32 49 -93 64 -137 26 -74 27 -89
28 -265 1 -107 -3 -209 -10 -241 -6 -30 -13 -117 -14 -192 -2 -99 -8 -150 -20
-185 -32 -90 -69 -173 -77 -173 -5 0 -8 -8 -8 -18 0 -10 -12 -34 -26 -53 -14
-19 -34 -50 -43 -69 -19 -41 -43 -77 -87 -128 -17 -21 -50 -70 -74 -110 -24
-41 -53 -80 -66 -89 -12 -8 -31 -31 -41 -51 -47 -92 -156 -221 -214 -253 -15
-8 -53 -32 -85 -54 -107 -72 -272 -119 -512 -145 -51 -5 -105 -16 -120 -24
-21 -10 -73 -13 -235 -10 -184 4 -212 7 -245 24 -20 11 -43 20 -50 20 -8 0
-31 13 -51 29 -20 16 -67 43 -105 61 -37 18 -82 44 -100 59 -17 15 -43 32 -58
39 -16 6 -28 15 -28 20 0 5 -20 31 -45 58 -25 27 -52 61 -60 76 -8 15 -21 31
-27 35 -16 10 -58 69 -58 81 0 5 -9 17 -21 28 -12 10 -29 37 -39 59 -46 101
-60 139 -60 163 0 14 -9 55 -19 91 -11 36 -29 118 -42 181 -19 102 -21 135
-16 287 5 142 10 179 26 210 10 21 23 69 29 106 6 37 19 78 29 91 10 13 41 52
70 87 29 35 69 85 90 111 21 26 47 50 58 54 20 7 101 74 189 157 28 26 59 50
69 53 9 3 17 9 17 14 0 26 183 97 284 110 39 4 130 5 201 1 122 -7 135 -10
194 -41 35 -19 76 -46 90 -61 15 -14 53 -49 84 -76 128 -112 225 -282 271
-476 25 -103 29 -139 29 -267 0 -153 -5 -173 -54 -235 -24 -31 -119 -201 -119
-214 0 -6 -4 -11 -9 -11 -5 0 -42 -25 -83 -56 l-73 -56 -145 4 c-164 5 -190
13 -241 72 -33 38 -34 42 -34 128 l0 90 36 33 c22 20 59 40 95 50 32 9 64 25
71 35 7 10 28 20 45 22 29 3 36 11 65 66 39 75 41 114 11 203 -24 74 -60 124
-118 164 l-41 28 -157 -2 c-133 -1 -163 -4 -194 -21 -64 -33 -118 -70 -118
-80 0 -5 -12 -13 -27 -16 -49 -12 -120 -80 -139 -132 -9 -26 -25 -66 -35 -88
-62 -140 -66 -179 -41 -349 14 -90 118 -280 197 -357 159 -155 166 -159 356
-193 118 -21 208 -19 271 5 29 11 105 34 168 51 63 18 122 38 130 45 8 7 55
31 103 53 71 33 101 54 162 116 41 41 75 80 75 86 0 5 16 24 35 42 54 50 148
217 162 289 3 18 12 43 20 54 8 12 21 73 30 137 15 99 15 129 5 214 -7 54 -12
123 -12 154 0 38 -5 61 -15 69 -8 7 -15 18 -15 25 0 16 -65 152 -108 226 -20
34 -56 75 -92 104 -33 27 -60 51 -60 55 0 4 -17 27 -38 51 -22 24 -46 57 -53
72 -8 15 -27 36 -41 45 -172 114 -161 108 -278 151 -25 9 -55 22 -67 29 -12 7
-33 12 -47 12 -24 0 -112 30 -147 49 -9 5 -67 15 -130 21 -137 15 -413 0 -476
-26 -93 -38 -141 -65 -178 -101 -22 -20 -50 -44 -61 -53 -70 -49 -164 -125
-164 -131 0 -4 -30 -22 -66 -40 -44 -22 -77 -47 -102 -78 -20 -25 -61 -73 -92
-106 -30 -34 -64 -79 -75 -100 -11 -22 -32 -56 -46 -75 -65 -86 -97 -155 -109
-235 -7 -44 -17 -86 -23 -93 -15 -19 -26 -140 -33 -362 -6 -187 -5 -200 21
-318 30 -141 86 -322 111 -361 9 -14 27 -37 39 -51 13 -14 26 -39 29 -55 11
-51 106 -182 216 -296 36 -37 94 -104 129 -148 36 -45 68 -81 71 -81 4 0 24
-14 45 -30 21 -17 104 -63 183 -102 155 -76 262 -109 437 -134 55 -7 120 -18
145 -23 25 -5 108 -15 185 -21 120 -10 153 -10 230 4 50 9 110 16 133 16 49 0
149 26 172 44 8 7 34 18 56 24 82 24 130 52 199 117 39 36 90 80 114 96 25 17
70 53 101 80 31 27 63 49 71 49 24 0 123 79 136 108 6 15 28 44 47 66 20 21
36 42 36 46 0 4 23 36 50 70 28 34 50 66 50 71 0 13 46 77 77 107 46 46 124
180 163 282 12 30 27 69 34 85 8 17 23 62 34 100 11 39 28 97 37 130 18 60 58
209 74 275 5 19 14 101 21 182 17 193 8 412 -24 588 -36 196 -37 200 -56 213
-18 13 -20 17 -89 153 -46 93 -138 234 -151 234 -5 0 -23 26 -41 58 -70 122
-74 126 -164 207 -37 32 -72 71 -78 86 -7 15 -46 55 -87 88 -41 34 -82 67 -90
75 -8 7 -40 27 -70 43 -80 43 -140 82 -140 92 0 5 -15 14 -32 22 -18 7 -45 21
-60 31 -58 40 -147 81 -228 104 -47 13 -103 31 -125 40 -80 32 -452 69 -670
66 -185 -2 -425 -33 -655 -86 -63 -15 -149 -34 -190 -43 -41 -9 -83 -23 -93
-31 -9 -8 -26 -20 -36 -26 -32 -18 -145 -97 -166 -117 -11 -10 -51 -46 -90
-81 -38 -35 -96 -83 -128 -107 -32 -23 -61 -50 -64 -59 -4 -9 -34 -45 -67 -79
-65 -65 -109 -123 -140 -182 -10 -20 -31 -52 -46 -71 -14 -19 -42 -62 -60 -95
-56 -101 -103 -179 -121 -200 -28 -33 -79 -134 -79 -156 0 -26 -49 -140 -66
-154 -15 -13 -81 -179 -101 -255 -8 -30 -18 -59 -22 -65 -5 -5 -13 -32 -20
-60 -7 -27 -18 -75 -26 -105 -49 -201 -67 -657 -33 -850 10 -52 22 -126 28
-165 6 -38 16 -83 22 -100 5 -16 23 -74 38 -128 16 -54 33 -104 38 -110 5 -7
15 -30 22 -52 12 -38 98 -222 119 -255 5 -8 40 -78 77 -154 69 -143 118 -226
135 -226 5 0 9 -6 9 -14 0 -8 8 -21 18 -28 21 -15 208 -219 266 -290 21 -26
54 -57 73 -69 19 -12 51 -37 72 -56 20 -18 56 -45 80 -59 61 -37 100 -65 144
-105 21 -19 68 -61 105 -94 67 -61 203 -149 275 -179 22 -9 52 -27 69 -41 16
-14 39 -25 50 -25 11 0 50 -7 87 -15 36 -8 98 -22 136 -30 39 -8 95 -22 125
-31 144 -41 163 -43 540 -48 291 -4 400 -2 485 8 185 24 298 44 344 60 24 9
58 16 76 16 29 0 102 29 240 95 28 13 103 43 169 66 65 24 120 49 123 56 3 7
11 13 19 13 7 0 29 14 48 30 18 17 67 46 107 65 111 53 211 116 239 150 23 27
180 191 240 251 151 148 284 274 296 278 8 3 19 18 25 33 5 16 25 44 44 63 35
37 64 81 90 140 9 19 24 44 35 55 10 11 32 61 49 110 38 114 54 155 67 180 6
11 17 56 23 100 23 146 32 184 52 209 12 16 21 47 25 88 6 68 30 161 50 193 7
11 28 92 48 180 43 196 68 490 47 577 -6 28 -18 126 -27 217 -9 91 -20 171
-24 176 -5 6 -22 51 -38 100 -17 49 -35 91 -41 93 -6 2 -11 13 -11 25 -1 12
-8 40 -16 62 -9 22 -21 70 -29 106 -7 36 -20 83 -29 104 -9 20 -16 57 -16 81
0 23 -6 49 -13 56 -8 7 -27 43 -43 78 -15 36 -34 70 -40 75 -6 6 -14 25 -18
44 -3 19 -15 40 -25 48 -11 7 -25 30 -32 50 -14 43 -72 146 -104 185 -13 15
-26 43 -29 63 -4 20 -13 38 -21 41 -8 3 -27 29 -43 58 -28 48 -128 177 -144
184 -5 2 -36 27 -69 55 -55 47 -116 121 -160 195 -16 27 -219 235 -244 249 -7
5 -50 44 -96 88 -46 44 -105 93 -130 110 -53 35 -176 131 -202 157 -10 10 -22
18 -28 18 -5 0 -22 8 -37 19 -15 10 -49 31 -76 47 -27 16 -59 36 -71 44 -129
87 -182 119 -211 126 -16 4 -66 27 -112 51 -46 23 -97 43 -113 43 -17 0 -71
14 -121 30 -49 17 -98 30 -108 30 -10 0 -49 16 -85 36 -86 45 -214 74 -377 84
-70 4 -139 11 -155 14 -84 19 -470 39 -498 26z"/>
</g>
</svg>
