<?xml version="1.0" standalone="no"?>
<!DOCTYPE svg PUBLIC "-//W3C//DTD SVG 20010904//EN"
 "http://www.w3.org/TR/2001/REC-SVG-20010904/DTD/svg10.dtd">
<svg version="1.0" xmlns="http://www.w3.org/2000/svg"
 width="2460.000000pt" height="1550.000000pt" viewBox="0 0 2460.000000 1550.000000"
 preserveAspectRatio="xMidYMid meet">

<g transform="translate(0.000000,1550.000000) scale(0.100000,-0.100000)"
fill="#000000" stroke="none">
<path d="M5604 14450 c-119 -16 -243 -96 -654 -420 -140 -111 -267 -191 -380
-241 -84 -37 -224 -79 -265 -79 -39 0 -104 -88 -144 -194 -30 -81 -47 -168
-62 -312 -11 -120 -11 -122 14 -185 28 -71 58 -185 79 -299 15 -87 18 -538 4
-775 -7 -125 -5 -184 13 -350 11 -110 21 -231 22 -269 l2 -69 -79 -77 c-92
-88 -219 -176 -449 -310 -301 -176 -281 -160 -376 -316 -45 -76 -96 -169 -112
-207 -28 -67 -28 -73 -17 -131 23 -115 84 -218 225 -381 48 -55 51 -57 92 -52
102 11 258 123 338 242 28 41 104 136 169 210 95 107 127 138 157 147 32 9 42
8 64 -6 29 -19 28 -17 101 -224 67 -191 159 -486 259 -832 106 -366 181 -626
199 -682 9 -30 15 -97 15 -182 3 -244 21 -308 141 -506 172 -285 335 -701 535
-1375 15 -49 60 -193 100 -320 41 -126 85 -275 100 -330 56 -214 161 -502 279
-763 50 -110 254 -518 361 -722 37 -69 125 -240 197 -380 73 -140 146 -273
164 -295 17 -22 57 -80 87 -130 31 -49 77 -113 102 -142 59 -67 92 -77 199
-61 76 12 80 14 126 65 29 31 55 73 65 102 l16 48 -371 1099 c-204 605 -386
1143 -405 1197 -34 95 -35 101 -34 251 0 314 -41 487 -246 1036 -213 569 -254
739 -239 995 20 343 -4 541 -115 965 -160 608 -187 807 -156 1130 18 179 18
198 -1 800 l-7 205 54 41 c205 156 411 196 864 167 184 -12 451 -9 540 5 78
13 81 13 137 -12 31 -14 94 -33 140 -42 153 -31 308 -11 698 91 262 68 328 78
479 72 174 -6 251 -31 370 -120 l55 -40 73 37 c142 74 209 180 185 295 -17 80
-61 143 -197 283 -142 145 -199 212 -317 369 -48 64 -93 121 -100 127 -7 6
-87 18 -177 27 -711 70 -1525 -69 -2470 -424 l-165 -62 -17 22 c-9 12 -33 52
-52 89 -61 112 -81 230 -54 310 10 28 9 51 -1 110 -29 159 -2 366 84 645 136
446 148 494 164 648 6 58 8 135 5 169 -6 65 -41 225 -53 245 -10 15 -80 49
-127 61 -60 16 -163 21 -231 12z"/>
<path d="M16645 11754 c-16 -2 -79 -9 -140 -15 -252 -25 -502 -92 -685 -185
-200 -102 -340 -240 -429 -424 l-46 -95 1 -135 c2 -153 14 -259 50 -440 24
-117 35 -162 100 -397 15 -57 38 -112 60 -145 19 -28 62 -105 95 -170 70 -136
98 -163 169 -163 64 0 131 37 218 119 111 105 183 199 239 312 65 130 135 239
314 494 227 324 306 467 360 660 45 161 26 443 -34 498 -12 11 -52 36 -88 56
-66 36 -92 40 -184 30z m-658 -698 c26 -23 28 -29 27 -94 -1 -62 -7 -82 -47
-164 -56 -114 -191 -288 -223 -288 -31 0 -71 35 -83 73 -6 17 -9 87 -8 153 l2
122 39 56 c96 140 224 202 293 142z"/>
<path d="M9919 11297 c-319 -146 -554 -347 -822 -703 -76 -101 -221 -318 -462
-694 -121 -188 -155 -220 -238 -220 -50 0 -66 10 -237 148 -229 186 -339 225
-525 189 -44 -9 -136 -23 -205 -32 -238 -31 -375 -79 -475 -167 -48 -43 -141
-176 -176 -253 -28 -62 -24 -122 14 -207 55 -120 120 -169 279 -208 45 -11 99
-25 119 -30 20 -6 144 -10 275 -10 262 1 350 -12 439 -64 38 -23 98 -81 121
-117 5 -8 40 -29 77 -48 186 -93 289 -269 358 -614 16 -81 29 -156 29 -165 0
-9 27 -104 60 -209 99 -320 121 -432 121 -613 0 -72 -6 -143 -16 -190 -19 -82
-76 -214 -123 -282 -17 -24 -50 -83 -75 -130 -79 -151 -146 -244 -322 -448
-50 -58 -102 -126 -115 -153 -14 -26 -62 -98 -106 -159 -141 -193 -174 -265
-174 -383 0 -40 -9 -69 -40 -131 -42 -82 -45 -111 -14 -145 10 -11 14 -41 14
-101 0 -185 52 -300 299 -668 90 -135 186 -282 213 -328 58 -97 156 -206 244
-268 81 -58 216 -124 329 -162 132 -44 409 -104 442 -96 122 29 181 169 273
649 60 312 96 573 125 910 12 141 6 590 -10 751 -27 272 -70 487 -115 569 -58
105 -77 199 -90 450 -5 105 -15 215 -21 245 -6 30 -11 92 -10 137 2 103 -13
220 -44 345 -35 137 -63 209 -185 488 -135 307 -174 408 -205 529 -52 208 -57
419 -10 511 12 25 37 90 55 145 42 129 59 162 113 212 95 88 336 133 478 90
93 -28 119 -52 161 -147 64 -148 84 -271 65 -391 -7 -41 -5 -50 15 -73 18 -22
38 -30 98 -40 68 -12 78 -11 110 5 88 44 200 137 390 324 215 211 268 258 362
320 55 36 59 41 102 144 185 441 192 871 21 1212 -77 153 -93 166 -270 229
-153 54 -292 80 -465 86 l-155 5 -96 -44z"/>
<path d="M19210 10664 c-262 -40 -429 -120 -799 -383 -247 -176 -366 -252
-493 -316 -266 -133 -471 -324 -584 -545 l-39 -75 0 -255 c0 -267 3 -286 48
-379 18 -37 32 -49 87 -75 92 -44 197 -48 292 -13 87 33 142 69 323 213 83 65
182 137 219 159 79 45 104 76 203 249 107 188 195 269 312 287 39 6 53 2 115
-32 39 -21 90 -45 112 -53 22 -7 85 -35 138 -62 106 -51 189 -121 218 -184 34
-73 50 -266 54 -640 4 -403 7 -381 -81 -561 -28 -58 -54 -115 -57 -127 -11
-40 -52 -39 -136 5 -63 33 -91 41 -154 46 -112 10 -310 57 -488 117 -198 66
-352 113 -446 135 -115 28 -264 45 -329 39 -130 -12 -161 -17 -222 -38 -181
-61 -293 -148 -425 -326 -108 -147 -179 -288 -218 -434 -11 -39 -29 -105 -40
-146 -35 -124 -36 -275 -6 -550 24 -211 31 -250 72 -380 56 -179 155 -385 232
-482 88 -113 108 -140 130 -183 11 -22 34 -48 51 -58 17 -10 42 -33 56 -51 14
-19 45 -46 68 -62 23 -15 80 -64 127 -109 112 -108 276 -255 372 -334 42 -34
88 -77 101 -95 30 -39 105 -80 183 -101 32 -9 138 -22 234 -30 96 -8 191 -20
210 -25 57 -18 159 -13 299 14 72 14 141 26 154 26 74 0 156 -54 179 -117 10
-27 25 -41 63 -60 69 -35 169 -142 234 -249 101 -166 143 -224 206 -283 87
-80 133 -95 277 -89 97 5 112 8 135 29 52 49 103 184 103 275 0 31 -11 48 -76
117 -229 247 -374 522 -464 887 -84 338 -114 893 -60 1105 23 91 37 213 50
440 20 351 63 503 188 666 252 329 427 713 527 1157 21 92 32 121 62 160 95
124 137 299 114 474 -24 183 -77 332 -237 672 -109 231 -138 271 -267 369
-177 136 -372 215 -619 252 -89 14 -246 18 -308 9z m-645 -3344 c38 -6 107
-23 152 -39 95 -33 291 -138 298 -161 10 -32 25 -209 25 -300 -1 -107 -8 -193
-45 -495 -28 -233 -33 -439 -15 -578 14 -101 14 -101 -62 -142 -46 -25 -66
-30 -148 -33 -78 -3 -107 0 -160 18 -120 40 -240 123 -289 198 -109 171 -149
320 -186 685 -16 157 -16 177 0 300 9 72 27 173 40 224 22 86 93 253 127 296
24 31 146 43 263 27z"/>
<path d="M12660 9629 c-14 -5 -37 -22 -52 -36 -34 -32 -35 -59 -13 -230 37
-277 114 -548 305 -1073 59 -162 55 -145 121 -475 122 -612 184 -979 219
-1292 26 -231 28 -322 12 -514 -12 -155 -30 -243 -59 -288 -8 -13 -13 -35 -10
-48 3 -14 -4 -46 -15 -70 -11 -24 -17 -50 -15 -58 3 -7 -1 -32 -10 -56 -13
-38 -14 -60 -3 -170 12 -120 12 -131 -10 -225 -25 -110 -193 -616 -234 -707
-59 -130 -84 -280 -66 -392 15 -98 48 -163 117 -232 32 -33 83 -96 113 -139
29 -44 77 -106 105 -139 62 -71 89 -112 185 -270 110 -182 263 -327 423 -400
63 -28 169 -55 220 -55 39 0 122 186 153 345 36 179 17 556 -36 748 -45 159
-70 372 -90 772 -11 222 -26 404 -40 486 -7 43 -5 61 8 88 31 63 47 66 132 22
101 -52 184 -75 379 -105 l164 -25 42 29 c66 45 157 150 197 226 95 181 112
374 68 794 -26 244 -39 429 -35 482 2 24 9 125 16 224 47 663 -163 1294 -627
1894 -176 228 -628 652 -724 680 -110 32 -255 20 -455 -38 -120 -35 -110 -40
-201 100 -77 118 -119 150 -202 155 -32 1 -68 -2 -82 -8z m1140 -1326 c189
-54 300 -138 453 -343 189 -252 235 -344 273 -535 27 -140 18 -373 -18 -485
-7 -19 -12 -75 -12 -125 -1 -150 -43 -205 -269 -357 -149 -99 -153 -101 -219
-106 -55 -3 -75 0 -112 18 -61 29 -97 81 -195 283 -132 270 -177 479 -297
1360 -15 110 -15 135 -4 185 15 64 34 107 52 119 45 28 227 21 348 -14z"/>
<path d="M15972 9269 c-91 -18 -147 -53 -202 -126 -62 -83 -115 -188 -135
-268 -19 -75 -19 -101 1 -185 16 -65 16 -69 -5 -129 -77 -223 -66 -509 46
-1245 13 -85 15 -146 10 -283 -6 -155 -10 -183 -31 -238 -53 -131 -57 -270
-16 -571 21 -157 26 -354 10 -419 -6 -22 -19 -125 -30 -230 -40 -377 -71 -682
-80 -765 -5 -47 -16 -151 -25 -232 l-15 -147 -60 -113 c-111 -212 -153 -386
-153 -628 1 -161 10 -228 54 -404 66 -264 152 -469 255 -611 32 -44 80 -120
107 -170 58 -106 98 -158 138 -182 16 -10 29 -26 29 -37 0 -11 31 -50 75 -91
41 -40 75 -79 75 -88 0 -36 97 -87 167 -87 120 0 204 93 353 390 40 79 79 165
86 190 8 25 39 90 69 145 82 147 103 194 122 269 l16 67 -36 147 c-66 267 -95
454 -147 952 -45 436 -67 587 -111 790 -29 135 -72 282 -128 440 -53 151 -93
555 -137 1365 -17 318 -30 494 -44 570 -33 186 -43 351 -37 610 6 225 16 346
67 807 29 263 29 286 -2 339 -33 55 -76 96 -150 143 -60 38 -67 39 -136 25z"/>
<path d="M10850 9034 c-98 -55 -207 -141 -253 -198 -73 -93 -94 -153 -111
-321 -35 -342 -55 -598 -136 -1770 -25 -362 -34 -757 -19 -890 12 -114 47
-229 90 -296 26 -41 29 -54 29 -130 0 -174 30 -419 72 -584 55 -222 164 -464
296 -660 87 -130 103 -147 262 -280 l105 -87 60 5 c120 10 224 63 395 200
l105 84 179 374 c317 660 437 939 540 1254 163 501 206 864 169 1450 -14 233
-28 309 -88 490 -55 166 -235 528 -317 638 -35 47 -94 152 -149 265 -133 272
-204 368 -313 424 -82 42 -122 47 -411 52 -154 3 -316 8 -360 11 -79 6 -81 6
-145 -31z m829 -1274 c125 -35 164 -61 232 -153 183 -248 271 -594 256 -1007
-6 -166 -23 -311 -54 -450 -12 -58 -24 -84 -50 -114 -19 -21 -55 -82 -80 -135
-103 -220 -117 -245 -152 -284 -49 -55 -101 -77 -182 -77 -61 0 -72 3 -123 38
-127 85 -284 273 -379 456 l-32 61 -1 240 c0 220 -3 257 -33 445 -79 502 -44
724 144 913 33 33 73 66 90 73 50 22 275 18 364 -6z"/>
</g>
</svg>
